<?xml version="1.0" encoding="UTF-8"?><svg id="Layer_2" xmlns="http://www.w3.org/2000/svg" viewBox="0 0 100 100"><defs><style>.cls-1{stroke:#231f20;stroke-linecap:round;stroke-linejoin:round;stroke-width:1px;}.cls-1,.cls-2{fill:none;}</style></defs><g id="Layer_2-2"><rect class="cls-2" width="100" height="100"/><path class="cls-1" d="m15.67,42.21s3.56,2.26,5.2,2.39c1.64.14,3.05-.92,5.61-.59,2.89.38,3.75.81,6.23,1.13,2.84.37,6.82-.44,10.68.19,1.28.58,1.22,4.27-1.48,5.3-2.7,1.03-4.49.38-6.12,1.01-1.05.4-1.99,1.04-2.69,1.62-.4.32-.35,1.28-.19,2.03.4,1.93,1.62,6.95,1.62,6.95l4.35,7.5,6.1,4.9c1.35,1.19,1.15,3.25-.02,4.12-1.17.87-2.65.69-3.95-.26l-6.11-4.07-6.56-4.82s-7.68-9.77-9.04-10.96c-1.34-1.17-2.64-1.11-2.64-1.11"/><path class="cls-1" d="m34.51,62.2l3.93,2.7s3.95,1.3,5.11,2.08c1.6,1.09,1.76,2.54,1.78,4.05.02,1.51-.91,3.18-.91,3.18"/><path class="cls-1" d="m74.01,43.3c-.16,2.73-4.07,2.93-5.77,3.06-1.71.13-9.73.9-10.77-.15-.83-.83-2.8-4.93-3.73-6.56-.33-.57-.43-1.25-.28-1.89l.41-1.77c.16-.71.61-1.31,1.24-1.68l7.69-4.47c4.92-11.51,15.35-10.28,21.53-6.55"/><path class="cls-1" d="m77.57,31.36c0,7.06.57,16.61,6.57,16.61"/><path class="cls-1" d="m68.24,46.36l3.08,6.77s-1.74,3.04-1.27,5.5"/><path class="cls-1" d="m75.88,57.24c-.81,3.63-6.11,7.88-6.11,7.88l-9.89-6.38s-7.27-2.01-11.25-3.13c-1.29-.36-2.62.46-2.82,1.78-.34,2.16-.2,5.19,2.73,6.62,4.54,2.22,8.78,3.86,8.78,3.86l11.56,10.16c1.34,1.17,3.24,1.45,4.86.7l8.39-3.88"/></g></svg>