<?xml version="1.0" encoding="UTF-8"?>
<svg id="Layer_2" data-name="Layer 2" xmlns="http://www.w3.org/2000/svg" width="80" height="80" viewBox="0 0 80 80">
  <defs>
    <style>
      .cls-1 {
        stroke-width: 0px;
      }

      .cls-1, .cls-2 {
        fill: none;
      }

      .cls-2 {
        stroke: #000;
        stroke-linecap: round;
        stroke-linejoin: round;
        stroke-width: 1.5px;
      }
    </style>
  </defs>
  <g id="Layer_1-2" data-name="Layer 1">
    <rect class="cls-1" x="0" y="0" width="80" height="80"/>
    <g>
      <g>
        <path class="cls-2" d="M32.99,46.54h-15.22c-.81,0-1.47-.66-1.47-1.47v-21.33c0-.81.66-1.47,1.47-1.47h38.23c.81,0,1.47.66,1.47,1.47v16.36"/>
        <g>
          <line class="cls-2" x1="21.32" y1="36.56" x2="23.28" y2="36.56"/>
          <line class="cls-2" x1="27.16" y1="36.56" x2="29.12" y2="36.56"/>
          <line class="cls-2" x1="32.99" y1="36.56" x2="34.95" y2="36.56"/>
          <line class="cls-2" x1="38.83" y1="36.56" x2="40.79" y2="36.56"/>
        </g>
        <g>
          <line class="cls-2" x1="21.32" y1="27.95" x2="23.28" y2="27.95"/>
          <line class="cls-2" x1="27.16" y1="27.95" x2="29.12" y2="27.95"/>
          <line class="cls-2" x1="32.99" y1="27.95" x2="34.95" y2="27.95"/>
          <line class="cls-2" x1="38.83" y1="27.95" x2="40.79" y2="27.95"/>
          <line class="cls-2" x1="44.67" y1="27.95" x2="46.63" y2="27.95"/>
          <line class="cls-2" x1="50.5" y1="27.95" x2="52.46" y2="27.95"/>
        </g>
        <g>
          <line class="cls-2" x1="21.32" y1="32.25" x2="26.2" y2="32.25"/>
          <line class="cls-2" x1="30.07" y1="32.25" x2="32.03" y2="32.25"/>
          <line class="cls-2" x1="35.91" y1="32.25" x2="37.87" y2="32.25"/>
          <line class="cls-2" x1="41.75" y1="32.25" x2="43.71" y2="32.25"/>
          <line class="cls-2" x1="47.58" y1="32.25" x2="52.46" y2="32.25"/>
        </g>
        <g>
          <line class="cls-2" x1="27.16" y1="40.86" x2="40.79" y2="40.86"/>
          <line class="cls-2" x1="21.32" y1="40.86" x2="23.28" y2="40.86"/>
        </g>
      </g>
      <g>
        <g>
          <path class="cls-2" d="M53.85,48.8v-2.1c0-1.08-.88-1.96-1.96-1.96h0c-1.08,0-1.96.88-1.96,1.96v1.54"/>
          <path class="cls-2" d="M57.77,49.36v-1.32c0-1.08-.88-1.96-1.96-1.96h0c-1.08,0-1.96.88-1.96,1.96v.76"/>
          <path class="cls-2" d="M61.7,61.74v-12.36c0-1.08-.88-1.96-1.96-1.96h0c-1.08,0-1.96.88-1.96,1.96v-.02"/>
        </g>
        <path class="cls-2" d="M45.33,61.74l-6.02-13.35s3.48-1.62,5.01,1.89l1.69,3.79v-16.5c0-1.08.88-1.96,1.96-1.96h0c1.08,0,1.96.88,1.96,1.96v9.13"/>
      </g>
    </g>
  </g>
</svg>